<?xml version="1.0" standalone="no"?>
<!DOCTYPE svg PUBLIC "-//W3C//DTD SVG 20010904//EN"
 "http://www.w3.org/TR/2001/REC-SVG-20010904/DTD/svg10.dtd">
<svg version="1.0" xmlns="http://www.w3.org/2000/svg"
 width="434.000000pt" height="127.000000pt" viewBox="0 0 434.000000 127.000000"
 preserveAspectRatio="xMidYMid meet">

<g transform="translate(0.000000,127.000000) scale(0.100000,-0.100000)"
fill="#000000" stroke="none">
<path d="M2685 1255 c-79 -28 -115 -95 -115 -212 l0 -63 -45 0 -46 0 3 -77 3
-78 42 -3 43 -3 2 -267 3 -267 95 0 95 0 3 267 2 267 98 3 97 3 0 75 0 75 -97
3 -98 3 0 48 c0 65 14 75 114 81 l81 5 0 75 0 75 -120 2 c-84 2 -132 -2 -160
-12z"/>
<path d="M3236 1256 c-51 -19 -94 -61 -106 -105 -5 -20 -10 -66 -10 -103 l0
-68 -44 0 c-50 0 -56 -8 -56 -76 0 -66 13 -84 60 -84 l40 0 0 -270 0 -270 94
0 c76 0 95 3 100 16 3 9 6 130 6 270 l0 254 88 0 c48 0 93 4 100 9 9 5 12 28
10 77 l-3 69 -97 3 -98 3 0 54 c0 32 5 57 13 62 6 4 50 10 97 13 l85 5 0 75 0
75 -120 2 c-82 2 -132 -2 -159 -11z"/>
<path d="M142 1210 c-53 -11 -97 -42 -120 -83 -15 -29 -17 -71 -17 -437 l0
-405 105 0 105 0 5 52 c4 37 13 60 28 75 22 22 29 23 295 28 412 8 412 7 405
423 -3 238 -7 255 -60 304 -48 45 -67 47 -393 49 -171 2 -329 -1 -353 -6z
m574 -194 c11 -15 14 -59 14 -188 0 -220 11 -208 -190 -208 -178 0 -239 -11
-286 -52 l-34 -30 0 235 c0 204 2 238 16 252 14 14 45 16 241 13 209 -3 226
-4 239 -22z"/>
<path d="M1080 630 l0 -350 94 0 c76 0 95 3 100 16 3 9 6 109 6 222 0 187 2
210 20 239 27 45 54 56 145 63 l80 5 3 78 3 77 -70 0 c-92 0 -145 -21 -182
-73 l-29 -40 0 56 0 57 -85 0 -85 0 0 -350z"/>
<path d="M1710 958 c-81 -41 -85 -57 -85 -328 0 -217 2 -238 20 -269 11 -19
33 -43 48 -55 27 -20 42 -21 288 -24 241 -3 262 -2 304 17 36 16 50 29 65 63
18 38 20 67 20 267 0 207 -2 228 -21 267 -15 31 -32 48 -63 63 -39 19 -60 21
-287 21 -234 0 -247 -1 -289 -22z m441 -148 c18 -10 19 -23 19 -178 0 -117 -4
-172 -12 -180 -8 -8 -57 -12 -157 -12 -120 0 -147 3 -163 17 -16 14 -18 34
-18 171 0 203 -10 192 172 192 77 0 148 -5 159 -10z"/>
<path d="M3624 966 c-3 -8 -4 -122 -2 -253 3 -274 8 -290 88 -330 39 -20 59
-23 177 -23 142 0 185 10 230 52 l23 21 0 -126 c0 -161 4 -157 -165 -157 -66
0 -125 4 -131 8 -7 4 -14 18 -15 32 -4 25 -6 25 -94 25 l-90 0 -3 -50 c-3 -63
21 -112 68 -140 31 -18 56 -20 227 -23 236 -5 292 5 344 57 21 21 42 54 48 78
8 28 10 171 9 439 l-3 399 -89 3 c-65 2 -92 -1 -98 -10 -4 -7 -8 -98 -8 -203
0 -133 -4 -195 -13 -206 -24 -31 -56 -39 -165 -39 -92 0 -111 3 -125 18 -14
15 -17 50 -19 228 l-3 209 -93 3 c-74 2 -93 0 -98 -12z"/>
</g>
</svg>
